<svg xmlns="http://www.w3.org/2000/svg" xmlns:xlink="http://www.w3.org/1999/xlink" width="1280" zoomAndPan="magnify" viewBox="0 0 960 576.75" height="769" preserveAspectRatio="xMidYMid meet" version="1.0"><defs><clipPath id="fc867334d8"><path d="M 336.496094 150 L 623.621094 150 L 623.621094 476 L 336.496094 476 Z M 336.496094 150 " clip-rule="nonzero"/></clipPath></defs><g clip-path="url(#fc867334d8)"><path fill="#e44d26" d="M 362.835938 443.019531 L 336.753906 150.269531 L 623.363281 150.269531 L 597.25 442.96875 L 479.882812 475.535156 Z M 362.835938 443.019531 " fill-opacity="1" fill-rule="nonzero"/></g><path fill="#f16529" d="M 480.058594 450.652344 L 574.90625 424.347656 L 597.210938 174.203125 L 480.058594 174.203125 Z M 480.058594 450.652344 " fill-opacity="1" fill-rule="nonzero"/><path fill="#ebebeb" d="M 480.058594 282.789062 L 432.574219 282.789062 L 429.296875 246.019531 L 480.058594 246.019531 L 480.058594 210.121094 L 390.085938 210.121094 L 390.941406 219.742188 L 399.757812 318.6875 L 480.058594 318.6875 Z M 480.058594 376.03125 L 479.894531 376.070312 L 439.941406 365.269531 L 437.382812 336.632812 L 401.371094 336.632812 L 406.394531 393.011719 L 479.894531 413.421875 L 480.058594 413.382812 Z M 480.058594 376.03125 " fill-opacity="1" fill-rule="nonzero"/><path fill="#ffffff" d="M 479.9375 282.789062 L 479.9375 318.6875 L 524.117188 318.6875 L 519.945312 365.257812 L 479.921875 376.058594 L 479.921875 413.410156 L 553.476562 393.011719 L 554.019531 386.941406 L 562.457031 292.410156 L 563.339844 282.773438 L 553.667969 282.773438 Z M 479.9375 210.121094 L 479.9375 246.019531 L 566.601562 246.019531 L 567.320312 237.941406 L 568.957031 219.742188 L 569.8125 210.105469 Z M 479.9375 210.121094 " fill-opacity="1" fill-rule="nonzero"/></svg>